<svg width="1440" height="307" viewBox="0 0 1440 307" fill="none" xmlns="http://www.w3.org/2000/svg">
<rect x="-1105.5" y="0.5" width="3726" height="264" fill="#532350" stroke="black"/>
<path d="M-661.131 -155.038C-584.534 -75.6368 -208.999 35.5255 -16.2966 -155.038C224.581 -393.243 574.961 -285.374 672.723 -179.419C770.485 -73.4646 1097.29 49.0196 1314.8 -47.3422C1532.3 -143.704 2008.24 -149.742 2085.28 -47.3422" stroke="url(#paint0_linear_61_199)" stroke-opacity="0.4"/>
<path d="M-651.468 -146.316C-574.871 -66.9144 -204.458 44.2479 -11.756 -146.316C229.122 -384.521 574.028 -276.458 671.79 -170.503C769.553 -64.5483 1091.26 56.8855 1308.76 -39.4764C1526.27 -135.838 1996.09 -141.876 2073.13 -39.4764" stroke="url(#paint1_linear_61_199)" stroke-opacity="0.4"/>
<path d="M-641.805 -137.594C-565.208 -58.1924 -199.918 52.9699 -7.21557 -137.594C233.662 -375.799 573.095 -267.542 670.857 -161.587C768.619 -55.6324 1085.23 64.7509 1302.73 -31.6109C1520.23 -127.973 1983.93 -134.011 2060.98 -31.6109" stroke="url(#paint2_linear_61_199)" stroke-opacity="0.4"/>
<path d="M-632.142 -128.872C-555.545 -49.4703 -195.377 61.6919 -2.675 -128.872C238.203 -367.077 572.162 -258.626 669.924 -152.671C767.686 -46.7164 1079.19 72.6165 1296.7 -23.7454C1514.2 -120.107 1971.78 -126.145 2048.82 -23.7454" stroke="url(#paint3_linear_61_199)" stroke-opacity="0.4"/>
<path d="M-622.479 -120.15C-545.882 -40.7487 -190.837 70.4135 1.86546 -120.15C242.743 -358.355 571.229 -249.71 668.991 -143.756C766.753 -37.8008 1073.16 80.4815 1290.66 -15.8803C1508.16 -112.242 1959.62 -118.28 2036.67 -15.8803" stroke="url(#paint4_linear_61_199)" stroke-opacity="0.4"/>
<path d="M-612.816 -111.428C-536.219 -32.026 -186.296 79.1362 6.40598 -111.428C247.284 -349.632 570.296 -240.794 668.058 -134.839C765.82 -28.8842 1067.13 88.3477 1284.63 -8.01415C1502.13 -104.376 1947.47 -110.414 2024.51 -8.01415" stroke="url(#paint5_linear_61_199)" stroke-opacity="0.4"/>
<path d="M-603.153 -102.705C-526.556 -23.3037 -181.756 87.8586 10.9464 -102.705C251.824 -340.91 569.363 -231.878 667.125 -125.923C764.887 -19.968 1061.09 96.2135 1278.59 -0.148381C1496.1 -96.5102 1935.31 -102.548 2012.36 -0.148381" stroke="url(#paint6_linear_61_199)" stroke-opacity="0.4"/>
<path d="M-593.49 -93.983C-516.893 -14.5814 -177.215 96.5809 15.487 -93.983C256.365 -332.188 568.43 -222.961 666.192 -117.007C763.954 -11.0518 1055.06 104.079 1272.56 7.71741C1490.06 -88.6444 1923.16 -94.6824 2000.2 7.71741" stroke="url(#paint7_linear_61_199)" stroke-opacity="0.4"/>
<path d="M-583.827 -85.2605C-507.23 -5.85891 -172.675 105.303 20.0276 -85.2605C260.905 -323.465 567.497 -214.045 665.259 -108.09C763.021 -2.13541 1049.02 111.945 1266.53 15.5833C1484.03 -80.7785 1911.01 -86.8165 1988.05 15.5833" stroke="url(#paint8_linear_61_199)" stroke-opacity="0.4"/>
<path d="M-574.164 -76.5376C-497.567 2.86402 -168.134 114.026 24.5681 -76.5376C265.446 -314.742 566.564 -205.128 664.326 -99.1733C762.088 6.78142 1042.99 119.812 1260.49 23.4497C1478 -72.9121 1898.85 -78.9501 1975.9 23.4497" stroke="url(#paint9_linear_61_199)" stroke-opacity="0.4"/>
<path d="M-564.501 -67.815C-487.904 11.5866 -163.593 122.749 29.1086 -67.815C269.986 -306.02 565.631 -196.212 663.393 -90.2569C761.155 15.6979 1036.96 127.678 1254.46 31.3157C1471.96 -65.0461 1886.7 -71.0841 1963.74 31.3157" stroke="url(#paint10_linear_61_199)" stroke-opacity="0.4"/>
<path d="M-554.838 -59.0925C-478.241 20.3092 -159.053 131.471 33.6491 -59.0925C274.527 -297.297 564.698 -187.295 662.46 -81.3404C760.222 24.6144 1030.92 135.544 1248.43 39.1818C1465.93 -57.1801 1874.54 -63.218 1951.59 39.1818" stroke="url(#paint11_linear_61_199)" stroke-opacity="0.4"/>
<path d="M-545.175 -50.3697C-468.577 29.0319 -154.513 140.194 38.1896 -50.3697C279.067 -288.575 563.765 -178.378 661.527 -72.4237C759.289 33.531 1024.89 143.41 1242.39 47.048C1459.9 -49.3139 1862.39 -55.3519 1939.43 47.048" stroke="url(#paint12_linear_61_199)" stroke-opacity="0.4"/>
<path d="M-535.511 -41.6465C-458.914 37.7552 -149.972 148.917 42.7302 -41.6465C283.608 -279.851 562.832 -169.461 660.594 -63.5066C758.357 42.4482 1018.86 151.277 1236.36 54.9147C1453.86 -41.4472 1850.23 -47.4851 1927.28 54.9147" stroke="url(#paint13_linear_61_199)" stroke-opacity="0.4"/>
<path d="M-525.849 -32.9236C-449.251 46.478 -145.431 157.64 47.2706 -32.9236C288.148 -271.128 561.899 -160.545 659.661 -54.5898C757.423 51.3649 1012.82 159.143 1230.33 62.781C1447.83 -33.5809 1838.08 -39.6189 1915.12 62.781" stroke="url(#paint14_linear_61_199)" stroke-opacity="0.4"/>
<path d="M-516.185 -24.2007C-439.588 55.2009 -140.891 166.363 51.8112 -24.2007C292.689 -262.406 560.966 -151.628 658.728 -45.673C756.49 60.2818 1006.79 167.009 1224.29 70.6474C1441.8 -25.7145 1825.93 -31.7525 1902.97 70.6474" stroke="url(#paint15_linear_61_199)" stroke-opacity="0.4"/>
<path d="M-506.522 -15.4777C-429.925 63.9239 -136.35 175.086 56.3517 -15.4777C297.229 -253.683 560.033 -142.711 657.795 -36.7561C755.557 69.1987 1000.76 174.876 1218.26 78.5138C1435.76 -17.848 1813.77 -23.886 1890.82 78.5138" stroke="url(#paint16_linear_61_199)" stroke-opacity="0.4"/>
<path d="M-496.859 -6.75464C-420.262 72.647 -131.81 183.809 60.8922 -6.75464C301.77 -244.959 559.1 -133.794 656.862 -27.8391C754.624 78.1156 994.723 182.742 1212.23 86.3804C1429.73 -9.9815 1801.62 -16.0195 1878.66 86.3804" stroke="url(#paint17_linear_61_199)" stroke-opacity="0.4"/>
<path d="M-487.196 1.96849C-410.599 81.3701 -127.269 192.532 65.4327 1.96849C306.31 -236.236 558.167 -124.877 655.929 -18.9221C753.691 87.0327 988.689 190.609 1206.19 94.247C1423.69 -2.11491 1789.46 -8.15288 1866.51 94.247" stroke="url(#paint18_linear_61_199)" stroke-opacity="0.4"/>
<path d="M-477.533 10.6921C-400.936 90.0937 -122.729 201.256 69.9732 10.6921C310.851 -227.513 557.234 -115.959 654.996 -10.0045C752.758 95.9502 982.655 198.476 1200.16 102.114C1417.66 5.75218 1777.31 -0.285788 1854.35 102.114" stroke="url(#paint19_linear_61_199)" stroke-opacity="0.4"/>
<path d="M-467.87 19.4154C-391.273 98.817 -118.188 209.979 74.5136 19.4154C315.391 -218.789 556.301 -107.042 654.063 -1.08733C751.825 104.867 976.622 206.343 1194.12 109.981C1411.63 13.6189 1765.15 7.58096 1842.2 109.981" stroke="url(#paint20_linear_61_199)" stroke-opacity="0.4"/>
<path d="M-458.207 28.1387C-381.61 107.54 -113.648 218.703 79.0542 28.1387C319.932 -210.066 555.368 -98.1249 653.13 7.82986C750.892 113.785 970.588 214.209 1188.09 117.848C1405.59 21.4857 1753 15.4477 1830.04 117.848" stroke="url(#paint21_linear_61_199)" stroke-opacity="0.4"/>
<path d="M-448.544 36.8626C-371.947 116.264 -109.107 227.426 83.5947 36.8626C324.472 -201.342 554.435 -89.2071 652.197 16.7477C749.959 122.702 964.555 222.077 1182.06 125.715C1399.56 29.353 1740.85 23.3151 1817.89 125.715" stroke="url(#paint22_linear_61_199)" stroke-opacity="0.4"/>
<path d="M-438.881 45.5856C-362.284 124.987 -104.567 236.149 88.1352 45.5856C329.013 -192.619 553.502 -80.2902 651.264 25.6646C749.026 131.619 958.521 229.943 1176.02 133.581C1393.53 37.2195 1728.69 31.1815 1805.74 133.581" stroke="url(#paint23_linear_61_199)" stroke-opacity="0.4"/>
<path d="M-429.218 54.3096C-352.621 133.711 -100.026 244.874 92.6757 54.3096C333.553 -183.895 552.569 -71.3722 650.331 34.5825C748.093 140.537 952.487 237.811 1169.99 141.449C1387.49 45.087 1716.54 39.049 1793.58 141.449" stroke="url(#paint24_linear_61_199)" stroke-opacity="0.4"/>
<path d="M-419.555 63.0328C-342.958 142.434 -95.4858 253.597 97.2163 63.0328C338.094 -175.172 551.636 -62.4552 649.398 43.4996C747.16 149.454 946.454 245.677 1163.96 149.315C1381.46 52.9536 1704.38 46.9156 1781.43 149.315" stroke="url(#paint25_linear_61_199)" stroke-opacity="0.4"/>
<path d="M-409.892 71.757C-333.295 151.159 -90.9452 262.321 101.757 71.757C342.634 -166.448 550.703 -53.5371 648.465 52.4177C746.227 158.372 940.42 253.545 1157.92 157.183C1375.43 60.8213 1692.23 54.7833 1769.27 157.183" stroke="url(#paint26_linear_61_199)" stroke-opacity="0.4"/>
<path d="M-400.229 80.4807C-323.632 159.882 -86.4047 271.045 106.297 80.4807C347.175 -157.724 549.77 -44.6194 647.532 61.3353C745.294 167.29 934.387 261.412 1151.89 165.05C1369.39 68.6885 1680.07 62.6505 1757.12 165.05" stroke="url(#paint27_linear_61_199)" stroke-opacity="0.4"/>
<path d="M-390.566 89.2045C-313.969 168.606 -81.8642 279.768 110.838 89.2045C351.716 -149 548.837 -35.7017 646.599 70.253C744.361 176.208 928.353 269.279 1145.86 172.918C1363.36 76.5557 1667.92 70.5178 1744.96 172.918" stroke="url(#paint28_linear_61_199)" stroke-opacity="0.4"/>
<path d="M-380.903 97.9284C-304.306 177.33 -77.3237 288.492 115.378 97.9284C356.256 -140.276 547.904 -26.7839 645.666 79.1708C743.428 185.126 922.32 277.147 1139.82 180.785C1357.32 84.4231 1655.77 78.3851 1732.81 180.785" stroke="url(#paint29_linear_61_199)" stroke-opacity="0.4"/>
<path d="M-371.24 106.653C-294.643 186.054 -72.7832 297.217 119.919 106.653C360.797 -131.552 546.971 -17.8655 644.733 88.0892C742.495 194.044 916.286 285.015 1133.79 188.653C1351.29 92.291 1643.61 86.253 1720.66 188.653" stroke="url(#paint30_linear_61_199)" stroke-opacity="0.4"/>
<path d="M-361.577 115.377C-284.98 194.779 -68.2427 305.941 124.459 115.377C365.337 -122.828 546.038 -8.94757 643.8 97.0072C741.562 202.962 910.252 292.882 1127.76 196.52C1345.26 100.159 1631.46 94.1205 1708.5 196.52" stroke="url(#paint31_linear_61_199)" stroke-opacity="0.4"/>
<path d="M-351.914 124.101C-275.317 203.503 -63.7022 314.665 129 124.101C369.878 -114.104 545.105 -0.0295466 642.867 105.925C740.629 211.88 904.219 300.75 1121.72 204.388C1339.22 108.026 1619.3 101.988 1696.35 204.388" stroke="url(#paint32_linear_61_199)" stroke-opacity="0.4"/>
<path d="M-342.251 132.825C-265.654 212.227 -59.1616 323.389 133.54 132.825C374.418 -105.38 544.172 8.88848 641.934 114.843C739.696 220.798 898.185 308.617 1115.69 212.256C1333.19 115.894 1607.15 109.856 1684.19 212.256" stroke="url(#paint33_linear_61_199)" stroke-opacity="0.4"/>
<path d="M557.218 -6.5449C550.146 -13.6162 540.77 -7.03483 547.14 8.48765L531.115 20.2087C518.831 13.1166 495.194 24.946 504.496 34.2487L518.115 47.8678L531.735 61.4868C541.037 70.7894 552.867 47.152 545.774 34.8681L557.496 18.8429C573.018 25.2134 579.599 15.8369 572.528 8.76563L564.873 1.11036L557.218 -6.5449Z" stroke="white" stroke-opacity="0.31" stroke-width="1.5" stroke-linecap="round" stroke-linejoin="round"/>
<path d="M545.775 34.8683C545.775 34.8683 542.783 30.1585 539.456 27.2721" stroke="white" stroke-opacity="0.31" stroke-width="1.5" stroke-linecap="round" stroke-linejoin="round"/>
<path d="M511.989 42.1923L500.609 65.3689L524.43 54.8251" stroke="white" stroke-opacity="0.31" stroke-width="1.5" stroke-linecap="round" stroke-linejoin="round"/>
<path d="M45.5533 -7.02827C38.3638 -0.0772684 44.7861 9.40898 60.4138 3.30112L71.8629 19.5217C64.5647 31.6843 75.9938 55.5179 85.452 46.3734L99.2988 32.986L113.146 19.5985C122.604 10.4541 99.1692 -1.77226 86.7674 5.11168L70.9421 -6.87802C77.5736 -22.2909 68.3093 -29.0294 61.1198 -22.0784L53.3366 -14.5533L45.5533 -7.02827Z" stroke="white" stroke-opacity="0.31" stroke-width="1.5" stroke-linecap="round" stroke-linejoin="round"/>
<path d="M86.7675 5.11162C86.7675 5.11162 82.008 8.02326 79.0659 11.3007" stroke="white" stroke-opacity="0.31" stroke-width="1.5" stroke-linecap="round" stroke-linejoin="round"/>
<path d="M93.5208 39.0156L116.502 50.7855L106.362 26.7899" stroke="white" stroke-opacity="0.31" stroke-width="1.5" stroke-linecap="round" stroke-linejoin="round"/>
<g clip-path="url(#clip0_61_199)">
<path d="M1464.8 263.148C1470.17 254.708 1461.7 246.987 1447.94 256.582L1433.01 243.49C1437.26 229.957 1420.57 209.459 1413.52 220.562L1403.19 236.817L1392.86 253.073C1385.8 264.176 1411.44 270.581 1421.89 260.987L1440.08 268.941C1437.24 285.478 1447.82 289.862 1453.19 281.422L1459 272.285L1464.8 263.148Z" stroke="white" stroke-opacity="0.31" stroke-width="1.5" stroke-linecap="round" stroke-linejoin="round"/>
<path d="M1421.89 260.987C1421.89 260.987 1425.84 257.042 1427.93 253.168" stroke="white" stroke-opacity="0.31" stroke-width="1.5" stroke-linecap="round" stroke-linejoin="round"/>
<path d="M1407.39 229.603L1382.3 223.536L1397.77 244.494" stroke="white" stroke-opacity="0.31" stroke-width="1.5" stroke-linecap="round" stroke-linejoin="round"/>
</g>
<path d="M120.718 208.188C114.817 208.184 110.032 212.969 110.036 218.87C110.038 219.594 110.114 220.315 110.262 221.024L103.97 221.012C97.1834 220.998 91.72 226.475 91.72 233.262V237.365C91.4654 237.344 91.21 237.332 90.9544 237.329C85.0624 237.332 80.2868 242.108 80.2835 248C80.2802 253.897 85.0577 258.68 90.9544 258.683C91.21 258.68 91.4654 258.668 91.72 258.647V262.692C91.72 269.478 97.1834 274.928 103.97 274.942L110.274 274.953C110.119 275.677 110.038 276.415 110.035 277.155C110.039 283.051 114.821 287.829 120.718 287.826C126.615 287.829 131.398 283.051 131.401 277.155C131.399 276.431 131.322 275.71 131.174 275.001L137.467 275.013C144.253 275.027 149.717 269.55 149.717 262.763V258.647C144.13 258.248 139.801 253.601 139.799 248C139.807 242.404 144.135 237.763 149.717 237.365V233.334C149.717 226.547 144.253 221.097 137.467 221.084L131.162 221.072C131.317 220.348 131.398 219.61 131.401 218.87C131.405 212.969 126.62 208.184 120.718 208.188Z" stroke="white" stroke-opacity="0.31" stroke-width="1.5" stroke-linecap="round" stroke-linejoin="round"/>
<g clip-path="url(#clip1_61_199)">
<path d="M575.925 189.847C573.057 187.432 568.775 187.8 566.362 190.671C566.068 191.023 565.81 191.405 565.592 191.81L562.538 189.23C559.245 186.448 554.349 186.876 551.573 190.175L549.894 192.169C549.779 192.055 549.66 191.945 549.537 191.839C546.671 189.431 542.397 189.799 539.985 192.661C537.572 195.527 537.938 199.806 540.803 202.219C540.928 202.322 541.057 202.421 541.19 202.515L539.535 204.481C536.76 207.78 537.186 212.664 540.48 215.446L543.539 218.031C543.168 218.319 542.827 218.644 542.523 219.003C540.113 221.87 540.484 226.149 543.351 228.559C546.216 230.973 550.495 230.607 552.909 227.742C553.204 227.389 553.462 227.007 553.679 226.602L556.733 229.182C560.027 231.964 564.923 231.536 567.699 228.237L569.382 226.236C566.829 223.758 566.626 219.728 568.916 217.005C571.209 214.287 575.211 213.802 578.087 215.891L579.736 213.931C582.512 210.632 582.085 205.749 578.792 202.966L575.732 200.382C576.103 200.093 576.444 199.768 576.748 199.41C579.164 196.542 578.795 192.259 575.925 189.847Z" stroke="white" stroke-opacity="0.31" stroke-width="1.5" stroke-linecap="round" stroke-linejoin="round"/>
</g>
<g clip-path="url(#clip2_61_199)">
<path d="M1402.06 31.6431C1398.64 30.8896 1394.78 32.0889 1391.94 34.7893L1385.51 28.0176C1382.72 25.0786 1377.71 25.343 1374.26 28.6105L1370.28 32.3912C1372.58 34.8211 1373.19 38.5069 1371.88 42.0607C1370.57 45.6151 1367.53 48.4975 1363.91 49.622C1360.29 50.7464 1356.64 49.9428 1354.34 47.5139L1350.44 51.2099C1347 54.4774 1346.47 59.4738 1349.26 62.4128L1374.98 89.5267C1377.77 92.4656 1382.79 92.2012 1386.23 88.9338L1410.05 66.3344C1413.5 63.0669 1414.02 58.0705 1411.24 55.1315L1404.84 48.3919C1407.69 45.6905 1409.09 41.8987 1408.52 38.4444C1407.94 34.9893 1405.48 32.3967 1402.06 31.6431Z" stroke="white" stroke-opacity="0.31" stroke-width="1.5" stroke-linecap="round" stroke-linejoin="round"/>
</g>
<g clip-path="url(#clip3_61_199)">
<path d="M1024.88 64.13C1022.26 63.5534 1019.31 64.4712 1017.13 66.5379L1012.21 61.3554C1010.08 59.1061 1006.24 59.3084 1003.6 61.8091L1000.55 64.7026C1002.32 66.5622 1002.78 69.3831 1001.78 72.1029C1000.77 74.8232 998.448 77.0291 995.678 77.8898C992.909 78.7503 990.117 78.1353 988.353 76.2764L985.371 79.105C982.735 81.6057 982.331 85.4296 984.465 87.6789L1004.15 108.43C1006.29 110.679 1010.12 110.477 1012.76 107.976L1030.99 90.6802C1033.63 88.1795 1034.03 84.3556 1031.9 82.1063L1027 76.9483C1029.18 74.8809 1030.26 71.9789 1029.82 69.3352C1029.38 66.691 1027.5 64.7068 1024.88 64.13Z" stroke="#FFF9F9" stroke-opacity="0.31" stroke-width="1.5" stroke-linecap="round" stroke-linejoin="round"/>
</g>
<defs>
<linearGradient id="paint0_linear_61_199" x1="712.076" y1="-298.116" x2="712.076" y2="-12.4139" gradientUnits="userSpaceOnUse">
<stop stop-color="#61095C" stop-opacity="0.78"/>
<stop offset="1" stop-color="#AFA8AF" stop-opacity="0.946058"/>
</linearGradient>
<linearGradient id="paint1_linear_61_199" x1="710.831" y1="-289.313" x2="710.831" y2="-4.37704" gradientUnits="userSpaceOnUse">
<stop stop-color="#61095C" stop-opacity="0.78"/>
<stop offset="1" stop-color="#AFA8AF" stop-opacity="0.946058"/>
</linearGradient>
<linearGradient id="paint2_linear_61_199" x1="709.585" y1="-280.511" x2="709.585" y2="3.66098" gradientUnits="userSpaceOnUse">
<stop stop-color="#61095C" stop-opacity="0.78"/>
<stop offset="1" stop-color="#AFA8AF" stop-opacity="0.946058"/>
</linearGradient>
<linearGradient id="paint3_linear_61_199" x1="708.339" y1="-271.709" x2="708.339" y2="11.7006" gradientUnits="userSpaceOnUse">
<stop stop-color="#61095C" stop-opacity="0.78"/>
<stop offset="1" stop-color="#AFA8AF" stop-opacity="0.946058"/>
</linearGradient>
<linearGradient id="paint4_linear_61_199" x1="707.094" y1="-262.907" x2="707.094" y2="19.7414" gradientUnits="userSpaceOnUse">
<stop stop-color="#61095C" stop-opacity="0.78"/>
<stop offset="1" stop-color="#AFA8AF" stop-opacity="0.946058"/>
</linearGradient>
<linearGradient id="paint5_linear_61_199" x1="705.848" y1="-254.104" x2="705.848" y2="27.7848" gradientUnits="userSpaceOnUse">
<stop stop-color="#61095C" stop-opacity="0.78"/>
<stop offset="1" stop-color="#AFA8AF" stop-opacity="0.946058"/>
</linearGradient>
<linearGradient id="paint6_linear_61_199" x1="704.603" y1="-245.302" x2="704.603" y2="35.8294" gradientUnits="userSpaceOnUse">
<stop stop-color="#61095C" stop-opacity="0.78"/>
<stop offset="1" stop-color="#AFA8AF" stop-opacity="0.946058"/>
</linearGradient>
<linearGradient id="paint7_linear_61_199" x1="703.357" y1="-236.5" x2="703.357" y2="43.8757" gradientUnits="userSpaceOnUse">
<stop stop-color="#61095C" stop-opacity="0.78"/>
<stop offset="1" stop-color="#AFA8AF" stop-opacity="0.946058"/>
</linearGradient>
<linearGradient id="paint8_linear_61_199" x1="702.111" y1="-227.698" x2="702.111" y2="51.9237" gradientUnits="userSpaceOnUse">
<stop stop-color="#61095C" stop-opacity="0.78"/>
<stop offset="1" stop-color="#AFA8AF" stop-opacity="0.946058"/>
</linearGradient>
<linearGradient id="paint9_linear_61_199" x1="700.866" y1="-218.895" x2="700.866" y2="59.9738" gradientUnits="userSpaceOnUse">
<stop stop-color="#61095C" stop-opacity="0.78"/>
<stop offset="1" stop-color="#AFA8AF" stop-opacity="0.946058"/>
</linearGradient>
<linearGradient id="paint10_linear_61_199" x1="699.62" y1="-210.093" x2="699.62" y2="68.0252" gradientUnits="userSpaceOnUse">
<stop stop-color="#61095C" stop-opacity="0.78"/>
<stop offset="1" stop-color="#AFA8AF" stop-opacity="0.946058"/>
</linearGradient>
<linearGradient id="paint11_linear_61_199" x1="698.374" y1="-201.291" x2="698.374" y2="76.0784" gradientUnits="userSpaceOnUse">
<stop stop-color="#61095C" stop-opacity="0.78"/>
<stop offset="1" stop-color="#AFA8AF" stop-opacity="0.946058"/>
</linearGradient>
<linearGradient id="paint12_linear_61_199" x1="697.129" y1="-192.488" x2="697.129" y2="84.1334" gradientUnits="userSpaceOnUse">
<stop stop-color="#61095C" stop-opacity="0.78"/>
<stop offset="1" stop-color="#AFA8AF" stop-opacity="0.946058"/>
</linearGradient>
<linearGradient id="paint13_linear_61_199" x1="695.883" y1="-183.686" x2="695.883" y2="92.1907" gradientUnits="userSpaceOnUse">
<stop stop-color="#61095C" stop-opacity="0.78"/>
<stop offset="1" stop-color="#AFA8AF" stop-opacity="0.946058"/>
</linearGradient>
<linearGradient id="paint14_linear_61_199" x1="694.637" y1="-174.883" x2="694.637" y2="100.249" gradientUnits="userSpaceOnUse">
<stop stop-color="#61095C" stop-opacity="0.78"/>
<stop offset="1" stop-color="#AFA8AF" stop-opacity="0.946058"/>
</linearGradient>
<linearGradient id="paint15_linear_61_199" x1="693.392" y1="-166.081" x2="693.392" y2="108.31" gradientUnits="userSpaceOnUse">
<stop stop-color="#61095C" stop-opacity="0.78"/>
<stop offset="1" stop-color="#AFA8AF" stop-opacity="0.946058"/>
</linearGradient>
<linearGradient id="paint16_linear_61_199" x1="692.146" y1="-157.279" x2="692.146" y2="116.372" gradientUnits="userSpaceOnUse">
<stop stop-color="#61095C" stop-opacity="0.78"/>
<stop offset="1" stop-color="#AFA8AF" stop-opacity="0.946058"/>
</linearGradient>
<linearGradient id="paint17_linear_61_199" x1="690.901" y1="-148.477" x2="690.901" y2="124.436" gradientUnits="userSpaceOnUse">
<stop stop-color="#61095C" stop-opacity="0.78"/>
<stop offset="1" stop-color="#AFA8AF" stop-opacity="0.946058"/>
</linearGradient>
<linearGradient id="paint18_linear_61_199" x1="689.655" y1="-139.674" x2="689.655" y2="132.502" gradientUnits="userSpaceOnUse">
<stop stop-color="#61095C" stop-opacity="0.78"/>
<stop offset="1" stop-color="#AFA8AF" stop-opacity="0.946058"/>
</linearGradient>
<linearGradient id="paint19_linear_61_199" x1="688.409" y1="-130.872" x2="688.409" y2="140.571" gradientUnits="userSpaceOnUse">
<stop stop-color="#61095C" stop-opacity="0.78"/>
<stop offset="1" stop-color="#AFA8AF" stop-opacity="0.946058"/>
</linearGradient>
<linearGradient id="paint20_linear_61_199" x1="687.164" y1="-122.07" x2="687.164" y2="148.641" gradientUnits="userSpaceOnUse">
<stop stop-color="#61095C" stop-opacity="0.78"/>
<stop offset="1" stop-color="#AFA8AF" stop-opacity="0.946058"/>
</linearGradient>
<linearGradient id="paint21_linear_61_199" x1="685.918" y1="-113.267" x2="685.918" y2="156.713" gradientUnits="userSpaceOnUse">
<stop stop-color="#61095C" stop-opacity="0.78"/>
<stop offset="1" stop-color="#AFA8AF" stop-opacity="0.946058"/>
</linearGradient>
<linearGradient id="paint22_linear_61_199" x1="684.672" y1="-104.465" x2="684.672" y2="164.787" gradientUnits="userSpaceOnUse">
<stop stop-color="#61095C" stop-opacity="0.78"/>
<stop offset="1" stop-color="#AFA8AF" stop-opacity="0.946058"/>
</linearGradient>
<linearGradient id="paint23_linear_61_199" x1="683.427" y1="-95.6628" x2="683.427" y2="172.863" gradientUnits="userSpaceOnUse">
<stop stop-color="#61095C" stop-opacity="0.78"/>
<stop offset="1" stop-color="#AFA8AF" stop-opacity="0.946058"/>
</linearGradient>
<linearGradient id="paint24_linear_61_199" x1="682.181" y1="-86.8601" x2="682.181" y2="180.941" gradientUnits="userSpaceOnUse">
<stop stop-color="#61095C" stop-opacity="0.78"/>
<stop offset="1" stop-color="#AFA8AF" stop-opacity="0.946058"/>
</linearGradient>
<linearGradient id="paint25_linear_61_199" x1="680.936" y1="-78.0583" x2="680.936" y2="189.021" gradientUnits="userSpaceOnUse">
<stop stop-color="#61095C" stop-opacity="0.78"/>
<stop offset="1" stop-color="#AFA8AF" stop-opacity="0.946058"/>
</linearGradient>
<linearGradient id="paint26_linear_61_199" x1="679.69" y1="-69.2556" x2="679.69" y2="197.103" gradientUnits="userSpaceOnUse">
<stop stop-color="#61095C" stop-opacity="0.78"/>
<stop offset="1" stop-color="#AFA8AF" stop-opacity="0.946058"/>
</linearGradient>
<linearGradient id="paint27_linear_61_199" x1="678.445" y1="-60.4534" x2="678.445" y2="205.188" gradientUnits="userSpaceOnUse">
<stop stop-color="#61095C" stop-opacity="0.78"/>
<stop offset="1" stop-color="#AFA8AF" stop-opacity="0.946058"/>
</linearGradient>
<linearGradient id="paint28_linear_61_199" x1="677.199" y1="-51.6512" x2="677.199" y2="213.274" gradientUnits="userSpaceOnUse">
<stop stop-color="#61095C" stop-opacity="0.78"/>
<stop offset="1" stop-color="#AFA8AF" stop-opacity="0.946058"/>
</linearGradient>
<linearGradient id="paint29_linear_61_199" x1="675.953" y1="-42.8489" x2="675.953" y2="221.362" gradientUnits="userSpaceOnUse">
<stop stop-color="#61095C" stop-opacity="0.78"/>
<stop offset="1" stop-color="#AFA8AF" stop-opacity="0.946058"/>
</linearGradient>
<linearGradient id="paint30_linear_61_199" x1="674.708" y1="-34.0462" x2="674.708" y2="229.454" gradientUnits="userSpaceOnUse">
<stop stop-color="#61095C" stop-opacity="0.78"/>
<stop offset="1" stop-color="#AFA8AF" stop-opacity="0.946058"/>
</linearGradient>
<linearGradient id="paint31_linear_61_199" x1="673.462" y1="-25.244" x2="673.462" y2="237.547" gradientUnits="userSpaceOnUse">
<stop stop-color="#61095C" stop-opacity="0.78"/>
<stop offset="1" stop-color="#AFA8AF" stop-opacity="0.946058"/>
</linearGradient>
<linearGradient id="paint32_linear_61_199" x1="672.216" y1="-16.4417" x2="672.216" y2="245.642" gradientUnits="userSpaceOnUse">
<stop stop-color="#61095C" stop-opacity="0.78"/>
<stop offset="1" stop-color="#AFA8AF" stop-opacity="0.946058"/>
</linearGradient>
<linearGradient id="paint33_linear_61_199" x1="670.971" y1="-7.63953" x2="670.971" y2="253.739" gradientUnits="userSpaceOnUse">
<stop stop-color="#61095C" stop-opacity="0.78"/>
<stop offset="1" stop-color="#AFA8AF" stop-opacity="0.946058"/>
</linearGradient>
<clipPath id="clip0_61_199">
<rect width="92" height="92" fill="white" transform="translate(1461.8 197) rotate(77.4369)"/>
</clipPath>
<clipPath id="clip1_61_199">
<rect width="62.2585" height="62.2585" fill="white" transform="translate(553.084 163) rotate(40.0779)"/>
</clipPath>
<clipPath id="clip2_61_199">
<rect width="64" height="75" fill="white" transform="translate(1389.41 6) rotate(46.5081)"/>
</clipPath>
<clipPath id="clip3_61_199">
<rect width="48.9808" height="57.3994" fill="white" transform="translate(1015.19 44.5048) rotate(46.5081)"/>
</clipPath>
</defs>
</svg>
